<?xml version="1.0" encoding="UTF-8" standalone="no"?>
<!-- Created with Inkscape (http://www.inkscape.org/) -->

<svg
   width="100.04317mm"
   height="56.181465mm"
   viewBox="0 0 100.04317 56.181465"
   version="1.1"
   id="svg1"
   xml:space="preserve"
   sodipodi:docname="JJPD_optimized.svg"
   inkscape:version="1.4.3 (0d15f75, 2025-12-25)"
   xmlns:inkscape="http://www.inkscape.org/namespaces/inkscape"
   xmlns:sodipodi="http://sodipodi.sourceforge.net/DTD/sodipodi-0.dtd"
   xmlns:xlink="http://www.w3.org/1999/xlink"
   xmlns="http://www.w3.org/2000/svg"
   xmlns:svg="http://www.w3.org/2000/svg"><sodipodi:namedview
     id="namedview1"
     pagecolor="#ffffff"
     bordercolor="#000000"
     borderopacity="0.25"
     inkscape:showpageshadow="2"
     inkscape:pageopacity="0.0"
     inkscape:pagecheckerboard="0"
     inkscape:deskcolor="#d1d1d1"
     inkscape:document-units="mm"
     inkscape:zoom="1.0167041"
     inkscape:cx="140.15878"
     inkscape:cy="156.38769"
     inkscape:window-width="1382"
     inkscape:window-height="1032"
     inkscape:window-x="626"
     inkscape:window-y="0"
     inkscape:window-maximized="0"
     inkscape:current-layer="layer1" /><defs
     id="defs1"><linearGradient
       id="linearGradient227"
       inkscape:collect="always"><stop
         style="stop-color:#2e7dff;stop-opacity:1;"
         offset="0"
         id="stop227" /><stop
         style="stop-color:#00f2ff;stop-opacity:1;"
         offset="1"
         id="stop228" /></linearGradient><linearGradient
       inkscape:collect="always"
       xlink:href="#linearGradient227"
       id="linearGradient228"
       x1="79.17878"
       y1="65.270889"
       x2="133.66531"
       y2="65.270889"
       gradientUnits="userSpaceOnUse" /><linearGradient
       inkscape:collect="always"
       xlink:href="#linearGradient227"
       id="linearGradient249"
       gradientUnits="userSpaceOnUse"
       x1="79.17878"
       y1="65.270889"
       x2="133.66531"
       y2="65.270889" /><linearGradient
       inkscape:collect="always"
       xlink:href="#linearGradient227"
       id="linearGradient250"
       gradientUnits="userSpaceOnUse"
       x1="79.17878"
       y1="65.270889"
       x2="133.66531"
       y2="65.270889" /><linearGradient
       inkscape:collect="always"
       xlink:href="#linearGradient227"
       id="linearGradient251"
       gradientUnits="userSpaceOnUse"
       x1="79.17878"
       y1="65.270889"
       x2="133.66531"
       y2="65.270889" /><linearGradient
       inkscape:collect="always"
       xlink:href="#linearGradient227"
       id="linearGradient252"
       gradientUnits="userSpaceOnUse"
       x1="79.17878"
       y1="65.270889"
       x2="133.66531"
       y2="65.270889" /><linearGradient
       inkscape:collect="always"
       xlink:href="#linearGradient227"
       id="linearGradient253"
       gradientUnits="userSpaceOnUse"
       x1="79.17878"
       y1="65.270889"
       x2="133.66531"
       y2="65.270889" /><linearGradient
       inkscape:collect="always"
       xlink:href="#linearGradient227"
       id="linearGradient254"
       gradientUnits="userSpaceOnUse"
       x1="79.17878"
       y1="65.270889"
       x2="133.66531"
       y2="65.270889" /><linearGradient
       inkscape:collect="always"
       xlink:href="#linearGradient227"
       id="linearGradient255"
       gradientUnits="userSpaceOnUse"
       x1="79.17878"
       y1="65.270889"
       x2="133.66531"
       y2="65.270889" /><linearGradient
       inkscape:collect="always"
       xlink:href="#linearGradient227"
       id="linearGradient256"
       gradientUnits="userSpaceOnUse"
       x1="79.17878"
       y1="65.270889"
       x2="133.66531"
       y2="65.270889" /><linearGradient
       inkscape:collect="always"
       xlink:href="#linearGradient227"
       id="linearGradient257"
       gradientUnits="userSpaceOnUse"
       x1="79.17878"
       y1="65.270889"
       x2="133.66531"
       y2="65.270889" /><linearGradient
       inkscape:collect="always"
       xlink:href="#linearGradient227"
       id="linearGradient258"
       gradientUnits="userSpaceOnUse"
       x1="79.17878"
       y1="65.270889"
       x2="133.66531"
       y2="65.270889" /><linearGradient
       inkscape:collect="always"
       xlink:href="#linearGradient227"
       id="linearGradient259"
       gradientUnits="userSpaceOnUse"
       x1="79.17878"
       y1="65.270889"
       x2="133.66531"
       y2="65.270889" /><linearGradient
       inkscape:collect="always"
       xlink:href="#linearGradient227"
       id="linearGradient260"
       gradientUnits="userSpaceOnUse"
       x1="79.17878"
       y1="65.270889"
       x2="133.66531"
       y2="65.270889" /><linearGradient
       inkscape:collect="always"
       xlink:href="#linearGradient227"
       id="linearGradient261"
       gradientUnits="userSpaceOnUse"
       x1="79.17878"
       y1="65.270889"
       x2="133.66531"
       y2="65.270889" /><linearGradient
       inkscape:collect="always"
       xlink:href="#linearGradient227"
       id="linearGradient262"
       gradientUnits="userSpaceOnUse"
       x1="79.17878"
       y1="65.270889"
       x2="133.66531"
       y2="65.270889" /><linearGradient
       inkscape:collect="always"
       xlink:href="#linearGradient227"
       id="linearGradient263"
       gradientUnits="userSpaceOnUse"
       x1="79.17878"
       y1="65.270889"
       x2="133.66531"
       y2="65.270889" /><linearGradient
       inkscape:collect="always"
       xlink:href="#linearGradient227"
       id="linearGradient264"
       gradientUnits="userSpaceOnUse"
       x1="79.17878"
       y1="65.270889"
       x2="133.66531"
       y2="65.270889" /></defs><g
     inkscape:label="Layer 1"
     inkscape:groupmode="layer"
     id="layer1"
     transform="translate(-57.786006,-37.18016)"><g
       id="g199"
       style="fill:#00f2ff;fill-opacity:1"
       inkscape:label="words"><path
         style="fill:#00f2ff;fill-opacity:1"
         d="m 98.897739,55.439674 c -0.39175,-0.391747 -0.35244,-1.006303 0.0864,-1.351523 0.19729,-0.155189 0.43408,-0.282161 0.5262,-0.282161 0.0921,0 0.32891,0.126972 0.526201,0.282161 0.482,0.379139 0.482,0.962503 0,1.341642 -0.451051,0.354801 -0.790961,0.357751 -1.138831,0.0099 z"
         id="path196"
         inkscape:label="dot2j" /><path
         style="fill:#00f2ff;fill-opacity:1"
         d="m 90.593175,55.711955 c -0.391747,-0.391747 -0.352446,-1.006303 0.08643,-1.351523 0.197291,-0.155189 0.472975,-0.282162 0.612632,-0.282162 0.725771,0 1.098188,1.272183 0.49591,1.694035 -0.412705,0.289069 -0.868575,0.266046 -1.194972,-0.06035 z"
         id="path195"
         inkscape:label="dotj1" /><path
         id="path183"
         style="fill:#00f2ff;fill-opacity:1"
         d="m 122.74703,53.132674 c -0.69758,0.0096 -1.3882,0.07628 -1.86759,0.197404 -0.44627,0.112756 -1.38775,0.488067 -2.09186,0.833541 -1.65812,0.813558 -3.1403,2.225211 -3.83801,3.655591 -0.41654,0.854024 -0.46353,1.067737 -0.46353,2.110465 0,0.986761 0.0507,1.248315 0.33899,1.751831 0.18638,0.325569 0.50567,0.678 0.70952,0.783415 0.33501,0.173244 0.38394,0.167327 0.50695,-0.06253 0.10725,-0.200401 0.0655,-0.320311 -0.19586,-0.565857 -1.24981,-1.17413 -0.79682,-3.602065 1.00097,-5.365564 0.95889,-0.940594 1.30954,-1.188231 2.52698,-1.785938 2.55136,-1.252609 5.29432,-1.106091 6.73086,0.359151 1.71357,1.747802 2.0254,5.133497 0.89245,9.684164 -0.49294,1.979991 -0.46786,1.946306 -1.6707,2.266528 -1.89864,0.505454 -5.93364,1.51412 -6.05699,1.51412 -0.3973,0 0.97773,-6.487972 2.01744,-9.519316 0.43139,-1.258819 0.43242,-1.474434 0.006,-1.668632 -0.48852,-0.222583 -0.94794,0.02867 -1.29449,0.707967 -0.69098,1.354439 -1.96418,6.583921 -2.33267,9.582361 l -0.1602,1.302763 -1.16944,0.3545 c -1.6383,0.496105 -2.74305,1.050126 -3.39721,1.704289 -1.53198,1.53198 -0.76392,3.507265 1.57872,4.059184 h 5.1e-4 c 0.72474,0.170751 2.80165,0.172089 3.84783,0.0026 2.03139,-0.329131 3.69658,-1.109726 5.51388,-2.584855 1.72268,-1.398318 2.70151,-2.607181 3.67574,-4.539774 l 0.54467,-1.080554 0.8847,-0.251148 c 3.76025,-1.068729 6.86879,-0.883358 15.17995,0.906921 4.33987,0.934839 5.98834,1.175791 8.10028,1.183391 3.47407,0.01242 5.27038,-0.885882 5.52783,-2.764173 0.0719,-0.524693 0.0465,-0.636695 -0.16485,-0.717785 -0.29144,-0.111835 -0.59762,0.225993 -0.59841,0.659908 -0.001,0.574266 -0.50552,1.128703 -1.44797,1.592667 -0.89312,0.439685 -0.98844,0.456759 -2.84944,0.504879 -2.32219,0.06005 -3.31588,-0.08178 -8.9762,-1.280025 -5.91309,-1.251757 -7.59918,-1.472181 -10.54819,-1.379761 -2.11979,0.06643 -2.89894,0.16744 -4.4142,0.572575 -0.37041,0.09903 -0.38931,0.08499 -0.29921,-0.220658 0.68149,-2.311937 0.94474,-5.726042 0.57516,-7.461044 -0.56776,-2.665404 -2.14534,-4.415566 -4.41368,-4.896858 -0.50692,-0.107557 -1.21135,-0.155322 -1.90893,-0.145728 z m 3.04219,14.559835 c 0.1893,0 -0.84541,1.691603 -1.64899,2.695959 -1.39804,1.747331 -3.1333,3.004342 -5.02554,3.640088 -1.3271,0.445874 -3.4269,0.579625 -4.47001,0.284737 -2.17411,-0.614626 -2.26662,-2.449101 -0.17725,-3.51503 0.53986,-0.275422 2.74152,-1.064018 2.97088,-1.064018 0.0608,0 0.11059,0.112998 0.11059,0.251147 0,0.307254 0.4128,0.701766 0.73432,0.701766 0.51461,0 0.76326,-0.264489 0.76326,-0.812353 0,-0.387549 0.0642,-0.549704 0.23823,-0.601514 0.38801,-0.115523 6.41721,-1.580782 6.50451,-1.580782 z" /><path
         id="path176"
         style="fill:#00f2ff;fill-opacity:1"
         d="m 111.42007,54.661263 c -0.56077,-0.03413 -1.15662,0.11286 -1.70739,0.435632 -1.33617,0.783049 -3.02635,2.886089 -4.36717,5.433777 -0.36081,0.685573 -0.66334,1.173023 -0.7183,1.163753 h -5.2e-4 l -5.2e-4,-5.16e-4 c -1e-4,-4.8e-5 -0.001,-4.14e-4 -0.002,-5.17e-4 l -5.2e-4,-5.17e-4 h -5.1e-4 l -5.2e-4,-5.17e-4 c -0.003,-0.003 -0.005,-0.0091 -0.005,-0.01705 -0.002,-0.127093 0.24206,-1.225524 0.54157,-2.440678 0.62725,-2.544875 0.65851,-2.907892 0.26562,-3.118156 -0.99881,-0.534549 -1.33934,0.272287 -2.62207,6.219259 -0.5795,2.686683 -0.6036,2.758816 -1.17098,3.436483 -0.54319,0.64878 -2.971715,2.681686 -3.077335,2.57607 -0.02651,-0.02651 0.06573,-0.721271 0.204638,-1.543575 0.33636,-1.991053 0.658825,-4.599355 0.767395,-6.204789 0.08562,-1.266121 0.07872,-1.313678 -0.232544,-1.53169 -0.42543,-0.297981 -0.746253,-0.28417 -1.077453,0.04703 -0.21335,0.213383 -0.273436,0.456624 -0.275436,1.123445 -0.0057,1.688251 -1.118913,3.855695 -2.861324,5.570203 -1.24925,1.229249 -1.725769,1.471041 -0.89917,0.456303 0.638065,-0.783291 0.869007,-1.294527 0.704867,-1.560112 -0.196615,-0.318129 -0.562004,-0.120779 -0.877466,0.473873 -0.349594,0.658992 -2.393038,2.682217 -3.142961,3.111955 l -0.451135,0.258382 0.09405,-0.530717 c 0.292355,-1.65377 0.901156,-6.604594 0.928626,-7.55096 0.02773,-0.955694 -0.0036,-1.134086 -0.227893,-1.298112 -0.331053,-0.242035 -0.764722,-0.242695 -1.094507,-0.0015 -0.200352,0.146501 -0.27933,0.439957 -0.3545,1.314648 -0.192361,2.238381 -1.839511,4.657035 -3.846277,5.648234 -1.502188,0.741973 -2.233501,0.895505 -4.646745,0.976685 -2.515397,0.08462 -4.151217,-0.110469 -9.327079,-1.114144 -5.268053,-1.021555 -7.831029,-1.290006 -9.905856,-1.036113 -2.141526,0.262056 -3.490138,0.968381 -4.032828,2.112016 -0.288753,0.608584 -0.287262,1.384093 0.0031,1.495516 0.314235,0.120583 0.595313,-0.161213 0.595313,-0.596863 0,-0.559633 0.540509,-1.252622 1.297595,-1.663981 0.989807,-0.537806 2.225221,-0.699979 4.687569,-0.614949 2.145038,0.07407 4.18349,0.380004 8.718331,1.308964 3.352102,0.686677 5.043881,0.884408 7.487398,0.873848 1.843052,-0.008 2.442113,-0.06236 3.335714,-0.301273 2.16742,-0.579484 3.78508,-1.600649 4.85345,-3.063896 l 0.387574,-0.531234 v 0.403593 c 0,0.221856 -0.183612,1.519014 -0.408244,2.882512 -0.224631,1.363498 -0.408244,2.502128 -0.408244,2.530078 0,0.02795 -0.592864,0.470705 -1.317232,0.983919 -1.504132,1.065677 -3.796738,3.200479 -4.825029,4.492749 -2.888426,3.629934 -3.449164,7.783134 -1.145666,8.486304 v -5.17e-4 c 1.374028,0.41945 3.204569,-0.628861 4.630208,-2.652035 1.534138,-2.177147 2.968901,-5.804419 3.877283,-9.801985 0.153132,-0.673895 0.309159,-1.359445 0.346749,-1.523422 0.05187,-0.226284 0.535607,-0.525831 2.007629,-1.242818 1.066702,-0.519565 2.319819,-1.231029 2.784326,-1.580782 0.743824,-0.560066 1.858679,-1.797179 2.339909,-2.596224 0.25286,-0.419843 0.06758,1.421788 -0.37052,3.679879 l -0.366386,1.888774 -1.224214,0.928625 c -4.629889,3.51193 -7.281727,7.2922 -7.281727,10.379728 0,1.374071 0.31761,2.029525 1.165304,2.404505 0.68511,0.30306 1.252113,0.254714 2.208134,-0.189136 2.427865,-1.12717 4.793792,-5.499239 6.327262,-11.691793 l 0.577743,-2.333191 1.216463,-0.818554 c 0.669111,-0.450178 1.474371,-1.055602 1.789041,-1.345655 l 0.57206,-0.527616 -0.18811,0.985986 c -0.7566,3.970831 -1.20124,7.563025 -1.00149,8.088395 0.18463,0.485621 0.90144,0.625085 1.27796,0.248564 0.13278,-0.13274 0.21501,-0.455908 0.21601,-0.851111 0.003,-0.803905 0.55175,-4.466469 1.00511,-6.705534 0.47242,-2.333183 1.11939,-4.133953 2.46755,-6.864697 1.95418,-3.958247 4.08251,-6.298633 5.60896,-6.168099 0.6579,0.05626 0.94507,0.484346 1.15341,1.718241 0.14374,0.851073 0.1349,1.191775 -0.0625,2.348694 -0.55238,3.237057 -2.14576,6.014856 -4.21938,7.355107 -1.12157,0.724904 -2.25846,0.865124 -2.47324,0.305408 -0.16107,-0.419728 0.17354,-0.595142 0.95912,-0.502812 0.68118,0.08005 0.73277,0.06611 0.73277,-0.199988 0,-0.354371 -0.37775,-0.567924 -1.00356,-0.567924 -1.04507,0 -1.5424,0.471988 -1.38441,1.314132 0.12496,0.666075 0.71992,0.999821 1.77509,0.996321 3.00148,-0.01 6.15417,-3.459235 7.02696,-7.687902 0.58781,-2.847908 0.0936,-4.864865 -1.37821,-5.625497 -0.29418,-0.152026 -0.618,-0.237901 -0.95447,-0.258382 z M 96.226685,71.112972 c 0.0063,-4.72e-4 0.01118,8.19e-4 0.01395,0.0036 0.089,0.0899 -0.857524,3.591265 -1.34307,4.968689 -1.236907,3.508926 -2.877539,6.118167 -4.236434,6.737057 -0.879131,0.40039 -1.38608,0.252133 -1.750281,-0.511597 -0.447251,-0.9379 -0.193872,-2.435656 0.719336,-4.251937 0.660555,-1.313778 1.766886,-2.712273 3.361035,-4.248836 1.17004,-1.127772 3.039135,-2.68236 3.235462,-2.696993 z m -8.173145,0.119889 c 0.03463,2.04e-4 0.05625,0.01478 0.06253,0.04496 0.06439,0.309337 -0.619831,2.954002 -1.216464,4.702555 -1.047213,3.069067 -2.447955,5.488232 -3.81217,6.584094 -0.287175,0.23068 -0.72672,0.428089 -1.048515,0.471289 -0.480829,0.0645 -0.605758,0.02263 -0.946195,-0.31781 -1.075081,-1.075079 -0.361913,-3.96223 1.626774,-6.585127 1.282434,-1.691414 4.814666,-4.903013 5.334041,-4.89996 z" /></g><g
       id="g200"
       inkscape:label="hexagon"
       style="fill:url(#linearGradient228);stroke:none"><path
         id="path186"
         style="fill:url(#linearGradient249);fill-opacity:1;stroke:none"
         d="m 106.77694,37.18016 -0.43408,0.259415 c -0.23872,0.142936 -2.94568,1.779812 -6.01565,3.636987 -5.918475,3.58038 -12.694494,7.653581 -15.00942,9.022706 L 83.922526,50.92454 V 49.3882 47.85186 l 4.006991,-2.409673 c 3.422133,-2.057976 4.047566,-2.388771 4.279842,-2.264461 0.434393,0.23248 0.821599,0.170587 1.180806,-0.188619 0.663822,-0.663822 0.246886,-1.707906 -0.682129,-1.707906 -0.546148,0 -1.025777,0.507534 -1.025777,1.085722 0,0.338004 -0.336564,0.569433 -4.081405,2.806547 l -4.081404,2.438094 -0.0026,8.951392 c -0.0016,4.982958 0.04935,8.950875 0.115238,8.950875 0.0651,0 0.631844,-0.206405 1.259355,-0.458887 l 1.141016,-0.458887 0.06821,-5.701461 c 0.05914,-4.953539 0.0976,-5.755088 0.292488,-6.110221 0.31639,-0.576539 0.530462,-0.738114 2.295984,-1.734261 0.862084,-0.486407 3.00595,-1.759302 4.764567,-2.828768 8.909992,-5.418425 12.502202,-7.535891 12.963552,-7.641394 0.3465,-0.07924 0.67137,-0.05879 1.02112,0.06408 0.28209,0.09911 4.06592,2.312468 8.40879,4.918563 4.34288,2.606096 8.53932,5.100732 9.32553,5.54333 0.78621,0.442597 1.57354,1.04886 1.83813,1.250053 0.32222,0.24501 0.79998,0.656815 1.18391,1.026811 0.69299,0.667835 1.60662,1.664268 1.60662,2.035018 0,0.08705 0.0461,0.158027 0.10232,0.15813 0.14255,2.62e-4 0.0417,-4.224291 -0.10749,-4.503084 -0.10298,-0.19241 -10.62588,-6.559911 -20.32176,-12.296924 z m -14.05185,4.494816 c 0.144408,-0.0059 0.295171,0.04557 0.427364,0.177767 0.250108,0.250106 0.194615,0.763342 -0.09974,0.920874 -0.369248,0.197615 -0.476842,0.179004 -0.758093,-0.131775 -0.37601,-0.415487 -0.0028,-0.949141 0.430465,-0.966866 z"
         sodipodi:nodetypes="ccsccccssssscccscccssssssssssssccsssss" /><path
         id="path169"
         style="fill:url(#linearGradient250);fill-opacity:1;stroke:none"
         d="m 129.67271,67.964844 c -0.3466,0 -0.438,0.09129 -0.73381,0.737422 -0.18574,0.405713 -0.58807,1.106778 -0.89452,1.558045 l -0.55759,0.820622 -0.002,3.172416 c -0.003,4.034698 0.0715,3.864247 -2.24792,5.201749 -0.89617,0.51679 -5.25284,3.104757 -9.68158,5.751587 -9.53559,5.69891 -8.53191,5.338622 -10.88306,3.909322 -0.81737,-0.49689 -2.92588,-1.775697 -4.685498,-2.841687 -1.75961,-1.06598 -3.670397,-2.229018 -4.246253,-2.584338 l -1.046964,-0.645955 -1.028878,0.932243 c -0.56602,0.51264 -1.029394,0.945181 -1.029394,0.961181 0,0.01605 2.956282,1.797522 6.569108,3.958932 3.612819,2.1614 6.782979,4.058967 7.045049,4.216797 0.26207,0.15777 0.54015,0.268263 0.61805,0.245463 0.0779,-0.02281 5.20441,-3.080661 11.39207,-6.795451 6.18767,-3.7148 11.28571,-6.754627 11.32851,-6.754627 l 5.1e-4,5.17e-4 h 5.2e-4 5.2e-4 l 5.1e-4,5.17e-4 c 0.0414,0.03127 0.0754,0.708296 0.0754,1.531172 v 1.532207 l -3.84473,2.291849 c -3.17713,1.89398 -3.88619,2.266606 -4.08243,2.144056 -0.64968,-0.40574 -1.60249,0.09049 -1.60249,0.834574 0,0.49229 0.54657,1.05885 1.02113,1.05885 0.46977,0 1.02112,-0.566855 1.02112,-1.050065 0,-0.35528 0.27464,-0.546381 3.9362,-2.740401 l 3.93567,-2.358513 0.009,-7.544242 0.009,-7.544242 z m -8.51576,19.603971 c 0.57331,0 0.80962,0.600108 0.39842,1.011308 -0.4112,0.4112 -1.01131,0.174368 -1.01131,-0.398942 0,-0.15724 0.0735,-0.359268 0.1633,-0.449068 0.0899,-0.08987 0.29235,-0.163298 0.44959,-0.163298 z" /><path
         style="fill:url(#linearGradient251);fill-opacity:1;stroke:none"
         d="m 83.513895,70.635801 v -1.301059 l 1.130183,-0.344728 c 0.6216,-0.189599 1.172969,-0.344727 1.225263,-0.344727 0.05229,0 0.09508,0.262056 0.09508,0.582346 0,0.608098 -0.124699,0.752172 -2.06176,2.382101 l -0.388766,0.327126 z"
         id="path184" /><g
         id="g205"
         inkscape:label="circuit Traces"
         style="fill:url(#linearGradient264);fill-opacity:1;stroke:none"><g
           id="g201"
           inkscape:label="inner Circuit Traces"
           style="fill:url(#linearGradient258);fill-opacity:1;stroke:none"><g
             id="g202"
             inkscape:label="Inner upper circuits"
             style="fill:url(#linearGradient254);fill-opacity:1;stroke:none"><path
               id="path199"
               style="fill:url(#linearGradient252);fill-opacity:1;stroke:none"
               d="m 107.00639,44.66239 c -0.58894,-0.0088 -1.45836,0.452373 -3.56981,1.703772 -8.898921,5.274149 -9.34218,5.523022 -9.589078,5.390886 -0.369014,-0.19749 -0.640881,-0.155971 -0.939995,0.143143 -0.36999,0.369988 -0.354572,1.015486 0.03049,1.285193 0.166416,0.116561 0.43745,0.21239 0.602548,0.21239 0.361452,0 0.897667,-0.635074 0.798917,-0.946195 -0.05459,-0.172001 0.815579,-0.745426 3.841109,-2.531112 2.151569,-1.269865 4.862619,-2.878765 6.024439,-3.575492 1.16183,-0.696728 2.26537,-1.298183 2.45256,-1.336353 0.24929,-0.05083 0.65551,0.124262 1.51722,0.654224 0.64707,0.397953 2.82684,1.734404 4.84415,2.969844 3.33789,2.044185 3.66799,2.279118 3.66799,2.613278 0,0.506941 0.27435,0.790132 0.76585,0.790132 0.52673,0 0.91312,-0.345748 0.91312,-0.817004 0,-0.546651 -0.42372,-0.861871 -1.04903,-0.780831 -0.44935,0.05823 -0.69374,-0.04006 -1.87792,-0.754476 -2.39406,-1.444342 -7.33939,-4.488386 -7.71323,-4.748031 -0.24198,-0.168066 -0.45163,-0.269353 -0.71933,-0.273368 z m 10.44742,6.154663 c 0.21571,-0.01087 0.44325,0.11506 0.47801,0.359151 0.0567,0.397984 -0.38759,0.645756 -0.72089,0.402043 -0.16876,-0.123368 -0.21156,-0.265685 -0.14366,-0.479557 0.0579,-0.18227 0.21877,-0.273186 0.38654,-0.281637 z M 93.594804,52.0361 c 0.243183,0 0.430666,0.549988 0.258382,0.757577 -0.293397,0.353523 -0.809253,0.176161 -0.809253,-0.278019 0,-0.28333 0.225492,-0.479558 0.550871,-0.479558 z" /><path
               style="fill:url(#linearGradient253);fill-opacity:1;stroke:none"
               d="m 87.403601,60.262932 c -0.268756,-0.268756 -0.271925,-0.525469 -0.0097,-0.787669 0.165617,-0.165617 0.205663,-0.662739 0.211895,-2.630426 0.0089,-2.811694 0.100037,-3.202301 0.877228,-3.75993 0.299509,-0.214895 4.403368,-2.686605 9.119685,-5.492688 8.020861,-4.772195 8.617081,-5.102294 9.224181,-5.106996 0.57751,-0.0045 0.8403,0.113543 2.38417,1.070716 5.89046,3.651982 6.973,4.279344 7.23869,4.195014 0.46989,-0.149135 0.84864,0.159449 0.80087,0.652503 -0.035,0.361543 -0.10543,0.440686 -0.4246,0.477283 -0.4305,0.04936 -0.77217,-0.171133 -0.77942,-0.502998 -0.003,-0.135075 -0.65401,-0.615778 -1.66772,-1.231346 -7.52144,-4.567341 -7.21787,-4.397405 -7.72112,-4.322137 -0.69524,0.103982 -18.251832,10.668088 -18.476903,11.117872 -0.117287,0.23439 -0.170935,1.108679 -0.172317,2.808243 -0.0017,2.02934 0.03428,2.498008 0.202203,2.637371 0.112316,0.09321 0.204211,0.302883 0.204211,0.465933 0,0.583042 -0.596254,0.824329 -1.011328,0.409255 z"
               id="path194" /></g><g
             id="g203"
             inkscape:label="inner down circuits"
             style="fill:url(#linearGradient257);fill-opacity:1;stroke:none"><path
               id="path173"
               style="fill:url(#linearGradient255);fill-opacity:1;stroke:none"
               d="m 119.98234,77.155497 c -0.10056,0.0021 -0.20707,0.02237 -0.31678,0.06408 -0.36867,0.140167 -0.66207,0.685466 -0.54001,1.003556 0.0489,0.127391 -0.71708,0.653311 -2.42001,1.661398 -1.37051,0.811305 -4.05332,2.424907 -5.9614,3.585827 -2.45603,1.49431 -3.58905,2.110409 -3.87986,2.109949 -0.27854,-4.5e-4 -1.02422,-0.381287 -2.31666,-1.183907 -1.04829,-0.651 -2.9764,-1.845656 -4.28449,-2.654618 -2.187769,-1.352983 -2.38605,-1.508157 -2.47375,-1.936833 -0.09762,-0.477299 -0.538218,-0.949296 -0.886768,-0.949296 -0.29107,0 -0.86403,0.627618 -0.86403,0.946712 0,0.483165 0.504569,0.85787 1.067119,0.7922 0.41027,-0.0479 0.671983,0.05237 1.518253,0.583427 1.548316,0.971598 6.097606,3.795817 6.936526,4.306197 1.22899,0.7477 1.46072,0.693555 4.23489,-0.995805 8.75167,-5.329422 9.50065,-5.755503 9.98337,-5.677173 0.35528,0.05765 0.52888,0.0085 0.74982,-0.21239 0.58474,-0.584735 0.15773,-1.457784 -0.54622,-1.443324 z m -0.0284,0.377238 c 0.0581,4.37e-4 0.11936,0.0098 0.18293,0.02997 0.21368,0.06783 0.27625,0.183386 0.24495,0.453719 -0.0467,0.404049 -0.47325,0.557692 -0.75809,0.272851 -0.31921,-0.319209 -0.0763,-0.759604 0.33021,-0.756543 z M 96.892277,79.35743 c 0.278854,-0.01265 0.543046,0.235086 0.487309,0.52865 -0.05048,0.265802 -0.641928,0.440171 -0.835608,0.246496 -0.18378,-0.183786 -0.09634,-0.58656 0.156579,-0.721919 0.06214,-0.03325 0.127369,-0.05031 0.19172,-0.05323 z" /><path
               style="fill:url(#linearGradient256);fill-opacity:1;stroke:none"
               d="m 105.08065,87.364153 c -5.628301,-3.47407 -7.536371,-4.56027 -8.010791,-4.56027 -0.39283,0 -0.52362,-0.0687 -0.64715,-0.3398 -0.12837,-0.28174 -0.11171,-0.38744 0.0975,-0.618622 0.3402,-0.375922 0.76892,-0.287015 1.01094,0.209652 0.1505,0.30884 0.80968,0.77354 2.703621,1.90596 1.37753,0.82365 3.27756,1.98002 4.22228,2.56972 1.06848,0.66694 1.9107,1.09806 2.22837,1.14067 0.4725,0.0634 0.92588,-0.17862 6.06151,-3.23523 10.13274,-6.030799 12.66142,-7.604041 12.74938,-7.932148 0.0447,-0.166655 0.0821,-1.02285 0.0831,-1.902657 0.001,-0.974434 0.0551,-1.599649 0.138,-1.599649 0.0842,0 0.13614,0.718171 0.13614,1.882233 0,2.24951 0.18271,1.983459 -2.46117,3.583824 -4.74358,2.87133 -15.35243,9.220777 -15.74084,9.420967 -0.7596,0.3915 -1.24817,0.29179 -2.57088,-0.52465 z"
               id="path170" /></g></g><g
           id="g204"
           inkscape:label="outer Circuit Traces"
           style="fill:url(#linearGradient263);fill-opacity:1;stroke:none"><path
             id="path193"
             style="fill:url(#linearGradient259);fill-opacity:1;stroke:none"
             d="m 81.191427,50.765377 c -0.505442,0 -0.774886,0.250363 -0.890385,0.827856 -0.07474,0.373724 -0.02473,0.497279 0.337447,0.835608 0.398356,0.372119 0.42478,0.457794 0.42478,1.35909 0,0.829801 -0.03796,0.981776 -0.278536,1.110527 -0.621957,0.332863 -0.607387,1.503753 0.02119,1.703255 0.231749,0.07356 0.257349,0.229056 0.257349,1.548226 0,1.416974 -0.01108,1.471175 -0.327629,1.615405 -0.64006,0.29163 -0.575129,1.39218 0.09819,1.663465 0.44821,0.180588 0.569342,0.162197 0.960148,-0.145211 0.487177,-0.383213 0.495741,-1.087237 0.01809,-1.46296 -0.323341,-0.254343 -0.340548,-0.337477 -0.340548,-1.658297 0,-1.320821 0.0172,-1.403437 0.340548,-1.65778 0.242211,-0.19052 0.340547,-0.399478 0.340547,-0.724503 0,-0.325026 -0.09834,-0.533985 -0.340547,-0.724504 -0.308451,-0.242627 -0.340548,-0.362287 -0.340548,-1.278475 0,-0.908664 0.03463,-1.040905 0.340548,-1.306897 0.695701,-0.604904 0.295403,-1.704805 -0.620634,-1.704805 z m 0.02894,0.482658 c 0.05685,0.0022 0.117334,0.01054 0.180351,0.02635 0.294968,0.07403 0.35269,0.157957 0.31781,0.460437 -0.05719,0.496012 -0.69307,0.603547 -0.931726,0.157613 -0.192938,-0.360508 0.03565,-0.659928 0.433565,-0.644405 z m 0.05994,4.000272 c 0.06481,0.0011 0.130178,0.02244 0.204122,0.06201 0.314112,0.16811 0.344038,0.748547 0.04444,0.863513 -0.38361,0.147205 -0.589129,0.0887 -0.751376,-0.214457 -0.135295,-0.252802 -0.113602,-0.333866 0.144178,-0.542603 0.143843,-0.11648 0.250612,-0.170349 0.358634,-0.168465 z m -0.120923,4.84725 c 0.33493,0.0045 0.6825,0.338749 0.542603,0.703316 -0.129474,0.337401 -0.869359,0.294854 -0.980819,-0.05633 -0.04867,-0.153347 -0.01261,-0.370839 0.08062,-0.483175 0.09726,-0.117187 0.226542,-0.16557 0.357601,-0.163814 z" /><path
             id="path189"
             style="fill:url(#linearGradient260);fill-opacity:1;stroke:none"
             d="m 132.78208,53.595695 c -0.4224,-0.0086 -0.85814,0.298751 -0.91209,0.930176 -0.0341,0.399086 0.0222,0.531058 0.30644,0.717269 l 0.34778,0.227893 v 2.317171 c 0,2.296755 -0.003,2.319747 -0.34003,2.632397 -0.39581,0.366824 -0.44644,0.938861 -0.11524,1.30483 0.28221,0.31184 1.16723,0.335529 1.41439,0.03772 0.30608,-0.368809 0.21446,-1.026616 -0.18759,-1.347204 l -0.36277,-0.289905 v -2.327507 -2.327506 l 0.34003,-0.223242 c 0.25275,-0.165613 0.34055,-0.341954 0.34055,-0.686263 0,-0.632518 -0.40908,-0.957281 -0.83147,-0.965833 z m -0.0439,0.38809 c 0.0628,-0.0031 0.12865,0.0055 0.19585,0.02687 0.22538,0.07155 0.27785,0.183029 0.24495,0.521932 -0.0336,0.34633 -0.10987,0.438392 -0.38757,0.470772 -0.41581,0.04849 -0.5395,-0.05576 -0.5395,-0.454753 0,-0.322238 0.21394,-0.551307 0.48627,-0.564823 z m 0.0811,6.629053 c 0.26789,0 0.51855,0.383844 0.42375,0.648539 -0.10063,0.280847 -0.49743,0.431012 -0.75603,0.286287 -0.4411,-0.246848 -0.19657,-0.934826 0.33228,-0.934826 z" /><path
             id="path181"
             style="fill:url(#linearGradient261);fill-opacity:1;stroke:none"
             d="m 80.06178,71.826624 c -0.786223,0.01101 -1.217178,1.034631 -0.564307,1.639693 0.305781,0.283389 0.340548,0.421056 0.340548,1.354956 0,0.833219 0.04043,1.039213 0.204122,1.039213 0.16398,0 0.204122,-0.208026 0.204122,-1.056266 0,-0.915276 0.03726,-1.079351 0.277502,-1.229383 0.676532,-0.422501 0.543009,-1.529428 -0.207222,-1.717724 -0.08813,-0.02212 -0.173432,-0.03163 -0.254765,-0.03049 z m -0.04186,0.446484 c 0.284661,-0.0152 0.526744,0.251039 0.47749,0.599963 -0.08427,0.597021 -0.931726,0.44617 -0.931726,-0.165881 0,-0.132145 0.11432,-0.301594 0.253731,-0.376204 0.06715,-0.03594 0.134814,-0.05437 0.200505,-0.05788 z" /><path
             id="path179"
             style="fill:url(#linearGradient262);fill-opacity:1;stroke:none"
             d="m 132.13974,71.287638 c -0.70225,-0.006 -1.218,0.989309 -0.50023,1.553911 0.3402,0.267595 0.34055,0.268849 0.34055,2.68304 0,2.401469 -0.002,2.416966 -0.34055,2.730583 -0.38907,0.360584 -0.43573,0.812689 -0.12867,1.251086 h 5.1e-4 c 0.25714,0.367119 0.94337,0.407391 1.30845,0.077 0.36118,-0.326878 0.31772,-0.926005 -0.0909,-1.247469 l -0.34055,-0.267684 v -2.533179 c 0,-2.133789 0.0315,-2.533178 0.19947,-2.533178 0.26913,0 0.50789,-0.477495 0.45579,-0.912089 -0.0233,-0.194804 -0.20357,-0.473776 -0.40049,-0.620118 -0.16905,-0.125632 -0.34127,-0.180506 -0.50333,-0.181901 z m 0.0806,0.389641 c 0.0477,9.45e-4 0.0975,0.009 0.14883,0.02532 0.37796,0.119961 0.47333,0.47835 0.20567,0.774113 -0.26122,0.288645 -0.30262,0.295975 -0.6289,0.105937 -0.44725,-0.2605 -0.18641,-0.914513 0.2744,-0.905371 z m -0.0362,6.838342 c 0.30513,0 0.5467,0.368487 0.43408,0.661975 -0.0484,0.126025 -0.23666,0.222725 -0.43408,0.222725 -0.39692,0 -0.58935,-0.335351 -0.38137,-0.665075 0.0762,-0.120861 0.24793,-0.219625 0.38137,-0.219625 z" /></g></g></g></g></svg>
